<svg width="171" height="33" viewBox="0 0 171 33" fill="none" xmlns="http://www.w3.org/2000/svg">
<path d="M16.1559 2.5H155.42C163.704 2.50006 170.42 9.21576 170.42 17.5C170.42 25.7842 163.704 32.4999 155.42 32.5H16.1559C7.87167 32.5 1.15594 25.7843 1.15594 17.5C1.15594 9.21573 7.87167 2.5 16.1559 2.5Z" fill="#2A2422" stroke="white"/>
<path d="M51.932 13.64C51.868 14.248 51.82 14.824 51.788 15.368C51.772 15.912 51.764 16.328 51.764 16.616C51.764 16.92 51.772 17.208 51.788 17.48C51.804 17.752 51.82 17.976 51.836 18.152H51.284C51.172 17.16 51.02 16.376 50.828 15.8C50.652 15.208 50.388 14.784 50.036 14.528C49.7 14.256 49.236 14.12 48.644 14.12C48.516 14.12 48.38 14.12 48.236 14.12C48.108 14.12 47.972 14.12 47.828 14.12C47.316 14.12 46.948 14.24 46.724 14.48C46.516 14.72 46.412 15.152 46.412 15.776V23.528C46.412 24.312 46.628 24.84 47.06 25.112C47.508 25.368 48.108 25.496 48.86 25.496V26C48.476 25.984 47.932 25.968 47.228 25.952C46.54 25.92 45.804 25.904 45.02 25.904C44.46 25.904 43.9 25.92 43.34 25.952C42.796 25.968 42.38 25.984 42.092 26V25.496C42.716 25.496 43.156 25.376 43.412 25.136C43.684 24.896 43.82 24.44 43.82 23.768V15.872C43.82 15.2 43.684 14.744 43.412 14.504C43.156 14.264 42.716 14.144 42.092 14.144V13.64C42.38 13.656 42.812 13.68 43.388 13.712C43.964 13.728 44.524 13.736 45.068 13.736C45.628 13.736 46.18 13.72 46.724 13.688C47.284 13.656 47.78 13.64 48.212 13.64H51.932ZM63.7606 13.64V14.144C63.1526 14.144 62.7206 14.264 62.4646 14.504C62.2086 14.744 62.0806 15.2 62.0806 15.872V23.768C62.0806 24.44 62.2086 24.896 62.4646 25.136C62.7366 25.376 63.1686 25.496 63.7606 25.496V26C63.4886 25.984 63.0806 25.968 62.5366 25.952C62.0086 25.92 61.4246 25.904 60.7846 25.904C60.1606 25.904 59.5206 25.92 58.8646 25.952C58.2246 25.968 57.7286 25.984 57.3766 26V25.496C58.0646 25.496 58.5846 25.384 58.9366 25.16C59.3046 24.92 59.4886 24.456 59.4886 23.768V15.872C59.4886 15.2 59.3766 14.744 59.1526 14.504C58.9286 14.264 58.5446 14.144 58.0006 14.144H57.7846C57.3846 14.144 57.1206 14.272 56.9926 14.528C56.8806 14.768 56.7926 15.216 56.7286 15.872C56.6006 17.36 56.4406 18.784 56.2486 20.144C56.0726 21.504 55.7686 22.728 55.3366 23.816C55.1606 24.232 54.9446 24.64 54.6886 25.04C54.4486 25.424 54.1526 25.736 53.8006 25.976C53.4646 26.216 53.0646 26.336 52.6006 26.336C52.2966 26.336 52.0006 26.272 51.7126 26.144C51.4246 26.032 51.1846 25.856 50.9926 25.616C50.8006 25.36 50.7046 25.04 50.7046 24.656C50.7046 24.176 50.8406 23.808 51.1126 23.552C51.4006 23.28 51.7686 23.144 52.2166 23.144C52.6166 23.144 52.9446 23.264 53.2006 23.504C53.4566 23.744 53.5846 24.072 53.5846 24.488C53.5846 24.824 53.4886 25.112 53.2966 25.352C53.1046 25.592 52.8326 25.784 52.4806 25.928C52.5126 25.944 52.5526 25.952 52.6006 25.952C52.6646 25.952 52.7126 25.952 52.7446 25.952C53.1286 25.952 53.4566 25.832 53.7286 25.592C54.0166 25.336 54.2566 25.032 54.4486 24.68C54.6566 24.328 54.8166 24 54.9286 23.696C55.2006 23.024 55.4166 22.264 55.5766 21.416C55.7526 20.568 55.8966 19.672 56.0086 18.728C56.1206 17.784 56.2086 16.832 56.2726 15.872C56.3206 15.2 56.1766 14.744 55.8406 14.504C55.5206 14.264 55.0326 14.144 54.3766 14.144V13.64C54.5046 13.656 54.7046 13.68 54.9766 13.712C55.2646 13.728 55.6006 13.736 55.9846 13.736C56.3046 13.736 56.6326 13.736 56.9686 13.736C57.3046 13.72 57.6726 13.712 58.0726 13.712C58.4246 13.712 58.7366 13.72 59.0086 13.736C59.2966 13.736 59.5846 13.736 59.8726 13.736C60.1766 13.736 60.5046 13.736 60.8566 13.736C61.2086 13.736 61.5686 13.728 61.9366 13.712C62.3206 13.696 62.6726 13.68 62.9926 13.664C63.3286 13.648 63.5846 13.64 63.7606 13.64ZM68.4916 26.168C67.8196 26.168 67.2436 26.04 66.7636 25.784C66.2836 25.528 65.9236 25.176 65.6836 24.728C65.4436 24.28 65.3236 23.768 65.3236 23.192C65.3236 22.488 65.4836 21.92 65.8036 21.488C66.1236 21.04 66.5316 20.68 67.0276 20.408C67.5396 20.136 68.0756 19.912 68.6356 19.736C69.2116 19.544 69.7476 19.368 70.2436 19.208C70.7556 19.032 71.1716 18.832 71.4916 18.608C71.8276 18.384 71.9956 18.088 71.9956 17.72V16.088C71.9956 15.512 71.8996 15.056 71.7076 14.72C71.5316 14.368 71.2836 14.12 70.9636 13.976C70.6596 13.832 70.2916 13.76 69.8596 13.76C69.4916 13.76 69.0996 13.816 68.6836 13.928C68.2676 14.024 67.9396 14.224 67.6996 14.528C68.0516 14.624 68.3396 14.816 68.5636 15.104C68.8036 15.376 68.9236 15.72 68.9236 16.136C68.9236 16.584 68.7716 16.936 68.4676 17.192C68.1796 17.448 67.8116 17.576 67.3636 17.576C66.8676 17.576 66.4996 17.424 66.2596 17.12C66.0196 16.8 65.8996 16.432 65.8996 16.016C65.8996 15.584 66.0036 15.232 66.2116 14.96C66.4356 14.688 66.7236 14.432 67.0756 14.192C67.4596 13.936 67.9476 13.72 68.5396 13.544C69.1476 13.368 69.8196 13.28 70.5556 13.28C71.2436 13.28 71.8356 13.36 72.3316 13.52C72.8436 13.664 73.2676 13.904 73.6036 14.24C74.0036 14.608 74.2676 15.072 74.3956 15.632C74.5236 16.176 74.5876 16.84 74.5876 17.624V24.248C74.5876 24.648 74.6356 24.936 74.7316 25.112C74.8436 25.272 75.0196 25.352 75.2596 25.352C75.4196 25.352 75.5716 25.312 75.7156 25.232C75.8756 25.152 76.0596 25.032 76.2676 24.872L76.5076 25.28C76.1716 25.552 75.8276 25.768 75.4756 25.928C75.1396 26.088 74.7076 26.168 74.1796 26.168C73.6676 26.168 73.2516 26.088 72.9316 25.928C72.6116 25.768 72.3716 25.536 72.2116 25.232C72.0676 24.928 71.9956 24.552 71.9956 24.104C71.5796 24.776 71.0836 25.288 70.5076 25.64C69.9316 25.992 69.2596 26.168 68.4916 26.168ZM69.6436 25.016C70.0916 25.016 70.5076 24.888 70.8916 24.632C71.2916 24.376 71.6596 23.992 71.9956 23.48V18.704C71.8196 18.96 71.5636 19.184 71.2276 19.376C70.8916 19.552 70.5316 19.736 70.1476 19.928C69.7636 20.12 69.3956 20.344 69.0436 20.6C68.7076 20.84 68.4276 21.152 68.2036 21.536C67.9796 21.92 67.8676 22.408 67.8676 23C67.8676 23.624 68.0276 24.12 68.3476 24.488C68.6676 24.84 69.0996 25.016 69.6436 25.016ZM83.5368 13.64C84.7368 13.64 85.6808 13.76 86.3688 14C87.0568 14.24 87.5448 14.584 87.8328 15.032C88.1208 15.464 88.2648 15.96 88.2648 16.52C88.2648 17.368 87.8168 18.104 86.9208 18.728C86.0248 19.352 84.6568 19.664 82.8168 19.664C82.8168 19.664 82.7768 19.656 82.6968 19.64C82.6168 19.608 82.5288 19.576 82.4328 19.544C82.3528 19.512 82.3128 19.496 82.3128 19.496C83.2248 19.48 83.9208 19.376 84.4008 19.184C84.8808 18.976 85.2008 18.672 85.3608 18.272C85.5368 17.856 85.6248 17.344 85.6248 16.736C85.6248 16.256 85.5608 15.824 85.4328 15.44C85.3208 15.04 85.0808 14.728 84.7128 14.504C84.3608 14.264 83.8328 14.144 83.1288 14.144C82.5528 14.144 82.1448 14.264 81.9048 14.504C81.6648 14.744 81.5448 15.2 81.5448 15.872V23.768C81.5448 24.456 81.6648 24.92 81.9048 25.16C82.1448 25.384 82.5768 25.496 83.2008 25.496C84.0328 25.496 84.6728 25.36 85.1208 25.088C85.5688 24.816 85.8728 24.464 86.0328 24.032C86.2088 23.584 86.2968 23.104 86.2968 22.592C86.2968 21.584 86.0248 20.888 85.4808 20.504C84.9528 20.12 84.2328 19.928 83.3208 19.928H79.9608C79.9608 19.928 79.9608 19.856 79.9608 19.712C79.9608 19.568 79.9608 19.496 79.9608 19.496H83.3448L83.6088 19.544C84.9208 19.544 85.9688 19.664 86.7528 19.904C87.5368 20.128 88.1048 20.464 88.4568 20.912C88.8088 21.36 88.9848 21.912 88.9848 22.568C88.9848 23.208 88.8168 23.792 88.4808 24.32C88.1448 24.832 87.5848 25.24 86.8008 25.544C86.0328 25.848 85.0008 26 83.7048 26C83.2088 26 82.6648 25.984 82.0728 25.952C81.4808 25.92 80.8648 25.904 80.2248 25.904C79.6968 25.904 79.1368 25.92 78.5448 25.952C77.9528 25.968 77.5128 25.984 77.2248 26V25.496C77.8488 25.496 78.2888 25.376 78.5448 25.136C78.8168 24.896 78.9528 24.44 78.9528 23.768V15.872C78.9528 15.2 78.8168 14.744 78.5448 14.504C78.2888 14.264 77.8488 14.144 77.2248 14.144V13.64C77.5128 13.656 77.9448 13.68 78.5208 13.712C79.0968 13.728 79.6488 13.736 80.1768 13.736C80.8008 13.736 81.4008 13.72 81.9768 13.688C82.5688 13.656 83.0888 13.64 83.5368 13.64ZM104.097 13.64V14.144C103.473 14.144 103.025 14.264 102.753 14.504C102.497 14.744 102.369 15.2 102.369 15.872V23.768C102.369 24.44 102.497 24.896 102.753 25.136C103.025 25.376 103.473 25.496 104.097 25.496V26C103.825 25.984 103.401 25.968 102.825 25.952C102.249 25.92 101.681 25.904 101.121 25.904C100.577 25.904 100.033 25.92 99.4893 25.952C98.9613 25.968 98.5613 25.984 98.2893 26V25.496C98.8333 25.496 99.2173 25.376 99.4413 25.136C99.6653 24.896 99.7773 24.44 99.7773 23.768V15.872C99.7773 15.2 99.6653 14.744 99.4413 14.504C99.2173 14.264 98.8333 14.144 98.2893 14.144V13.64C98.5613 13.656 98.9533 13.68 99.4653 13.712C99.9933 13.728 100.529 13.736 101.073 13.736C101.633 13.736 102.201 13.728 102.777 13.712C103.369 13.68 103.809 13.656 104.097 13.64ZM96.3453 13.64V14.144C95.8173 14.144 95.4333 14.264 95.1933 14.504C94.9693 14.744 94.8573 15.2 94.8573 15.872V23.768C94.8573 24.44 94.9693 24.896 95.1933 25.136C95.4333 25.376 95.8173 25.496 96.3453 25.496V26C96.0893 25.984 95.6973 25.968 95.1693 25.952C94.6573 25.92 94.1213 25.904 93.5613 25.904C93.0173 25.904 92.4493 25.92 91.8573 25.952C91.2653 25.968 90.8253 25.984 90.5373 26V25.496C91.1613 25.496 91.6013 25.376 91.8573 25.136C92.1293 24.896 92.2653 24.44 92.2653 23.768V15.872C92.2653 15.2 92.1293 14.744 91.8573 14.504C91.6013 14.264 91.1613 14.144 90.5373 14.144V13.64C90.8253 13.656 91.2573 13.68 91.8333 13.712C92.4093 13.728 92.9693 13.736 93.5133 13.736C94.0733 13.736 94.6173 13.728 95.1453 13.712C95.6893 13.68 96.0893 13.656 96.3453 13.64ZM100.641 19.4V19.88H93.8733V19.4H100.641ZM108.804 26.168C108.132 26.168 107.556 26.04 107.076 25.784C106.596 25.528 106.236 25.176 105.996 24.728C105.756 24.28 105.636 23.768 105.636 23.192C105.636 22.488 105.796 21.92 106.116 21.488C106.436 21.04 106.844 20.68 107.34 20.408C107.852 20.136 108.388 19.912 108.948 19.736C109.524 19.544 110.06 19.368 110.556 19.208C111.068 19.032 111.484 18.832 111.804 18.608C112.14 18.384 112.308 18.088 112.308 17.72V16.088C112.308 15.512 112.212 15.056 112.02 14.72C111.844 14.368 111.596 14.12 111.276 13.976C110.972 13.832 110.604 13.76 110.172 13.76C109.804 13.76 109.412 13.816 108.996 13.928C108.58 14.024 108.252 14.224 108.012 14.528C108.364 14.624 108.652 14.816 108.876 15.104C109.116 15.376 109.236 15.72 109.236 16.136C109.236 16.584 109.084 16.936 108.78 17.192C108.492 17.448 108.124 17.576 107.676 17.576C107.18 17.576 106.812 17.424 106.572 17.12C106.332 16.8 106.212 16.432 106.212 16.016C106.212 15.584 106.316 15.232 106.524 14.96C106.748 14.688 107.036 14.432 107.388 14.192C107.772 13.936 108.26 13.72 108.852 13.544C109.46 13.368 110.132 13.28 110.868 13.28C111.556 13.28 112.148 13.36 112.644 13.52C113.156 13.664 113.58 13.904 113.916 14.24C114.316 14.608 114.58 15.072 114.708 15.632C114.836 16.176 114.9 16.84 114.9 17.624V24.248C114.9 24.648 114.948 24.936 115.044 25.112C115.156 25.272 115.332 25.352 115.572 25.352C115.732 25.352 115.884 25.312 116.028 25.232C116.188 25.152 116.372 25.032 116.58 24.872L116.82 25.28C116.484 25.552 116.14 25.768 115.788 25.928C115.452 26.088 115.02 26.168 114.492 26.168C113.98 26.168 113.564 26.088 113.244 25.928C112.924 25.768 112.684 25.536 112.524 25.232C112.38 24.928 112.308 24.552 112.308 24.104C111.892 24.776 111.396 25.288 110.82 25.64C110.244 25.992 109.572 26.168 108.804 26.168ZM109.956 25.016C110.404 25.016 110.82 24.888 111.204 24.632C111.604 24.376 111.972 23.992 112.308 23.48V18.704C112.132 18.96 111.876 19.184 111.54 19.376C111.204 19.552 110.844 19.736 110.46 19.928C110.076 20.12 109.708 20.344 109.356 20.6C109.02 20.84 108.74 21.152 108.516 21.536C108.292 21.92 108.18 22.408 108.18 23C108.18 23.624 108.34 24.12 108.66 24.488C108.98 24.84 109.412 25.016 109.956 25.016ZM129.465 13.64V14.144C128.873 14.144 128.441 14.264 128.169 14.504C127.913 14.744 127.785 15.2 127.785 15.872V23.768C127.785 24.44 127.897 24.896 128.121 25.136C128.361 25.376 128.745 25.496 129.273 25.496V26C129.017 25.984 128.625 25.968 128.097 25.952C127.585 25.92 127.049 25.904 126.489 25.904C125.945 25.904 125.385 25.92 124.809 25.952C124.233 25.968 123.801 25.984 123.513 26V25.496C124.121 25.496 124.553 25.376 124.809 25.136C125.065 24.896 125.193 24.44 125.193 23.768V15.704C125.193 15.128 125.081 14.728 124.857 14.504C124.633 14.264 124.233 14.144 123.657 14.144C122.953 14.144 122.417 14.28 122.049 14.552C121.681 14.808 121.433 15.144 121.305 15.56C121.177 15.976 121.113 16.432 121.113 16.928C121.113 17.968 121.353 18.744 121.833 19.256C122.329 19.768 123.193 20.032 124.425 20.048C124.793 20.064 125.161 20.072 125.529 20.072C125.913 20.072 126.281 20.072 126.633 20.072L126.681 20.528C125.897 20.528 125.209 20.536 124.617 20.552C124.041 20.568 123.577 20.576 123.225 20.576C122.217 20.576 121.401 20.48 120.777 20.288C120.153 20.096 119.673 19.832 119.337 19.496C119.001 19.16 118.769 18.792 118.641 18.392C118.529 17.992 118.473 17.584 118.473 17.168C118.473 16.48 118.617 15.872 118.905 15.344C119.193 14.816 119.689 14.4 120.393 14.096C121.113 13.792 122.089 13.64 123.321 13.64C123.801 13.64 124.305 13.656 124.833 13.688C125.377 13.72 125.945 13.736 126.537 13.736C127.081 13.736 127.633 13.728 128.193 13.712C128.769 13.68 129.193 13.656 129.465 13.64ZM124.521 20.312V20.552C124.105 20.568 123.689 20.608 123.273 20.672C122.873 20.72 122.521 20.888 122.217 21.176C121.977 21.4 121.785 21.696 121.641 22.064C121.513 22.432 121.401 22.832 121.305 23.264C121.209 23.68 121.081 24.104 120.921 24.536C120.713 25.08 120.417 25.472 120.033 25.712C119.649 25.952 119.025 26.072 118.161 26.072C117.953 26.072 117.729 26.064 117.489 26.048C117.249 26.032 116.993 26.016 116.721 26V25.496C117.169 25.448 117.505 25.384 117.729 25.304C117.953 25.208 118.113 25.072 118.209 24.896C118.321 24.704 118.433 24.456 118.545 24.152C118.801 23.496 119.001 22.984 119.145 22.616C119.305 22.232 119.465 21.936 119.625 21.728C119.785 21.504 119.985 21.312 120.225 21.152C120.401 21.024 120.609 20.912 120.849 20.816C121.089 20.704 121.377 20.608 121.713 20.528C122.049 20.448 122.449 20.392 122.913 20.36C123.377 20.312 123.913 20.296 124.521 20.312Z" fill="white"/>
</svg>
