<svg width="202" height="32" viewBox="0 0 202 32" fill="none" xmlns="http://www.w3.org/2000/svg">
<path d="M16.2599 1.5H186.054C194.338 1.50021 201.054 8.21586 201.054 16.5C201.054 24.7841 194.338 31.4998 186.054 31.5H16.2599C7.97562 31.5 1.25989 24.7843 1.25989 16.5C1.25989 8.21573 7.97562 1.5 16.2599 1.5Z" fill="#2A2422" stroke="white"/>
<path d="M55.5444 13.28C56.1844 13.28 56.6404 13.432 56.9124 13.736C57.1844 14.04 57.3204 14.392 57.3204 14.792C57.3204 15.224 57.1924 15.576 56.9364 15.848C56.6804 16.12 56.3284 16.256 55.8804 16.256C55.5924 16.256 55.3284 16.192 55.0884 16.064C54.8484 15.936 54.6564 15.752 54.5124 15.512C54.3684 15.272 54.2964 14.984 54.2964 14.648C54.2964 14.552 54.3204 14.456 54.3684 14.36C54.4164 14.248 54.4884 14.16 54.5844 14.096C54.3284 14.16 54.1204 14.304 53.9604 14.528C53.8004 14.736 53.6484 15.032 53.5044 15.416C53.3604 15.784 53.1924 16.248 53.0004 16.808C52.8564 17.24 52.6884 17.656 52.4964 18.056C52.3044 18.44 52.0324 18.768 51.6804 19.04C51.3444 19.296 50.8724 19.464 50.2644 19.544L50.4324 19.376C51.4884 19.312 52.3844 19.4 53.1204 19.64C53.8724 19.88 54.4564 20.312 54.8724 20.936C55.1604 21.352 55.3924 21.864 55.5684 22.472C55.7604 23.08 55.9684 23.648 56.1924 24.176C56.3684 24.576 56.5604 24.888 56.7684 25.112C56.9924 25.32 57.3364 25.448 57.8004 25.496V26C57.5444 26.048 57.2804 26.088 57.0084 26.12C56.7364 26.152 56.4804 26.168 56.2404 26.168C55.4564 26.168 54.8564 25.992 54.4404 25.64C54.0404 25.288 53.7524 24.776 53.5764 24.104C53.4964 23.848 53.4004 23.528 53.2884 23.144C53.1924 22.744 53.0564 22.344 52.8804 21.944C52.7204 21.528 52.5284 21.176 52.3044 20.888C51.9844 20.44 51.5604 20.144 51.0324 20C50.5204 19.856 49.8564 19.8 49.0404 19.832V19.424C49.8884 19.376 50.5364 19.232 50.9844 18.992C51.4324 18.752 51.7764 18.416 52.0164 17.984C52.2564 17.552 52.4804 17.024 52.6884 16.4C52.8484 15.888 53.0244 15.392 53.2164 14.912C53.4084 14.432 53.6804 14.04 54.0324 13.736C54.4004 13.432 54.9044 13.28 55.5444 13.28ZM50.6724 13.64V14.144C50.1124 14.144 49.7124 14.264 49.4724 14.504C49.2484 14.744 49.1364 15.2 49.1364 15.872V23.768C49.1364 24.44 49.2484 24.896 49.4724 25.136C49.7124 25.376 50.1124 25.496 50.6724 25.496V26C50.4004 25.984 49.9924 25.968 49.4484 25.952C48.9044 25.92 48.3524 25.904 47.7924 25.904C47.2484 25.904 46.6884 25.92 46.1124 25.952C45.5364 25.968 45.1044 25.984 44.8164 26V25.496C45.4404 25.496 45.8804 25.376 46.1364 25.136C46.4084 24.896 46.5444 24.44 46.5444 23.768V15.872C46.5444 15.2 46.4084 14.744 46.1364 14.504C45.8804 14.264 45.4404 14.144 44.8164 14.144V13.64C45.1044 13.656 45.5364 13.68 46.1124 13.712C46.7044 13.728 47.2804 13.736 47.8404 13.736C48.3844 13.736 48.9284 13.728 49.4724 13.712C50.0164 13.68 50.4164 13.656 50.6724 13.64ZM64.5742 13.28C65.6462 13.28 66.5982 13.504 67.4302 13.952C68.2622 14.4 68.9262 15.104 69.4222 16.064C69.9182 17.024 70.1662 18.28 70.1662 19.832C70.1662 21.384 69.9182 22.64 69.4222 23.6C68.9262 24.544 68.2622 25.24 67.4302 25.688C66.5982 26.12 65.6462 26.336 64.5742 26.336C63.5182 26.336 62.5662 26.12 61.7182 25.688C60.8702 25.24 60.1982 24.544 59.7022 23.6C59.2222 22.64 58.9822 21.384 58.9822 19.832C58.9822 18.28 59.2222 17.024 59.7022 16.064C60.1982 15.104 60.8702 14.4 61.7182 13.952C62.5662 13.504 63.5182 13.28 64.5742 13.28ZM64.5742 13.76C63.7422 13.76 63.0622 14.24 62.5342 15.2C62.0062 16.144 61.7422 17.688 61.7422 19.832C61.7422 21.976 62.0062 23.52 62.5342 24.464C63.0622 25.392 63.7422 25.856 64.5742 25.856C65.3902 25.856 66.0622 25.392 66.5902 24.464C67.1342 23.52 67.4062 21.976 67.4062 19.832C67.4062 17.688 67.1342 16.144 66.5902 15.2C66.0622 14.24 65.3902 13.76 64.5742 13.76ZM85.4233 13.64V14.144C84.7993 14.144 84.3513 14.264 84.0793 14.504C83.8233 14.744 83.6953 15.2 83.6953 15.872V23.768C83.6953 24.44 83.8233 24.896 84.0793 25.136C84.3513 25.376 84.7993 25.496 85.4233 25.496V26C85.1513 25.984 84.7273 25.968 84.1513 25.952C83.5753 25.92 83.0073 25.904 82.4473 25.904C81.9033 25.904 81.3593 25.92 80.8153 25.952C80.2873 25.968 79.8873 25.984 79.6153 26V25.496C80.1593 25.496 80.5433 25.376 80.7673 25.136C80.9913 24.896 81.1033 24.44 81.1033 23.768V15.872C81.1033 15.2 80.9913 14.744 80.7673 14.504C80.5433 14.264 80.1593 14.144 79.6153 14.144V13.64C79.8873 13.656 80.2793 13.68 80.7913 13.712C81.3193 13.728 81.8553 13.736 82.3993 13.736C82.9593 13.736 83.5273 13.728 84.1033 13.712C84.6953 13.68 85.1353 13.656 85.4233 13.64ZM77.6713 13.64V14.144C77.1433 14.144 76.7593 14.264 76.5193 14.504C76.2953 14.744 76.1833 15.2 76.1833 15.872V23.768C76.1833 24.44 76.2953 24.896 76.5193 25.136C76.7593 25.376 77.1433 25.496 77.6713 25.496V26C77.4153 25.984 77.0233 25.968 76.4953 25.952C75.9833 25.92 75.4473 25.904 74.8873 25.904C74.3433 25.904 73.7753 25.92 73.1833 25.952C72.5913 25.968 72.1513 25.984 71.8633 26V25.496C72.4873 25.496 72.9273 25.376 73.1833 25.136C73.4553 24.896 73.5913 24.44 73.5913 23.768V15.872C73.5913 15.2 73.4553 14.744 73.1833 14.504C72.9273 14.264 72.4873 14.144 71.8633 14.144V13.64C72.1513 13.656 72.5833 13.68 73.1593 13.712C73.7353 13.728 74.2953 13.736 74.8393 13.736C75.3993 13.736 75.9433 13.728 76.4713 13.712C77.0153 13.68 77.4153 13.656 77.6713 13.64ZM81.9673 19.4V19.88H75.1993V19.4H81.9673ZM98.9141 13.64C98.8501 14.248 98.8021 14.824 98.7701 15.368C98.7541 15.912 98.7461 16.328 98.7461 16.616C98.7461 16.92 98.7541 17.208 98.7701 17.48C98.7861 17.752 98.8021 17.976 98.8181 18.152H98.2661C98.1381 17.032 97.9301 16.184 97.6421 15.608C97.3701 15.032 97.0181 14.64 96.5861 14.432C96.1541 14.224 95.6421 14.12 95.0501 14.12H94.1621V23.528C94.1621 24.312 94.3781 24.84 94.8101 25.112C95.2581 25.368 95.8581 25.496 96.6101 25.496V26C96.2261 25.984 95.6981 25.968 95.0261 25.952C94.3541 25.92 93.6341 25.904 92.8661 25.904C92.1141 25.904 91.3941 25.92 90.7061 25.952C90.0341 25.968 89.5061 25.984 89.1221 26V25.496C89.8901 25.496 90.4901 25.376 90.9221 25.136C91.3541 24.88 91.5701 24.36 91.5701 23.576V14.12H90.4901C89.8981 14.12 89.4021 14.224 89.0021 14.432C88.6021 14.64 88.2741 15.04 88.0181 15.632C87.7781 16.208 87.5941 17.056 87.4661 18.176H86.9141C86.9461 18 86.9621 17.776 86.9621 17.504C86.9781 17.232 86.9861 16.944 86.9861 16.64C86.9861 16.352 86.9701 15.936 86.9381 15.392C86.9221 14.832 86.8821 14.256 86.8181 13.664H89.1941C89.7061 13.664 90.2821 13.672 90.9221 13.688C91.5621 13.704 92.2021 13.712 92.8421 13.712C93.4821 13.712 94.1221 13.704 94.7621 13.688C95.4181 13.656 96.0021 13.64 96.5141 13.64H98.9141ZM103.677 26.168C103.005 26.168 102.429 26.04 101.949 25.784C101.469 25.528 101.109 25.176 100.869 24.728C100.629 24.28 100.509 23.768 100.509 23.192C100.509 22.488 100.669 21.92 100.989 21.488C101.309 21.04 101.717 20.68 102.213 20.408C102.725 20.136 103.261 19.912 103.821 19.736C104.397 19.544 104.933 19.368 105.429 19.208C105.941 19.032 106.357 18.832 106.677 18.608C107.013 18.384 107.181 18.088 107.181 17.72V16.088C107.181 15.512 107.085 15.056 106.893 14.72C106.717 14.368 106.469 14.12 106.149 13.976C105.845 13.832 105.477 13.76 105.045 13.76C104.677 13.76 104.285 13.816 103.869 13.928C103.453 14.024 103.125 14.224 102.885 14.528C103.237 14.624 103.525 14.816 103.749 15.104C103.989 15.376 104.109 15.72 104.109 16.136C104.109 16.584 103.957 16.936 103.653 17.192C103.365 17.448 102.997 17.576 102.549 17.576C102.053 17.576 101.685 17.424 101.445 17.12C101.205 16.8 101.085 16.432 101.085 16.016C101.085 15.584 101.189 15.232 101.397 14.96C101.621 14.688 101.909 14.432 102.261 14.192C102.645 13.936 103.133 13.72 103.725 13.544C104.333 13.368 105.005 13.28 105.741 13.28C106.429 13.28 107.021 13.36 107.517 13.52C108.029 13.664 108.453 13.904 108.789 14.24C109.189 14.608 109.453 15.072 109.581 15.632C109.709 16.176 109.773 16.84 109.773 17.624V24.248C109.773 24.648 109.821 24.936 109.917 25.112C110.029 25.272 110.205 25.352 110.445 25.352C110.605 25.352 110.757 25.312 110.901 25.232C111.061 25.152 111.245 25.032 111.453 24.872L111.693 25.28C111.357 25.552 111.013 25.768 110.661 25.928C110.325 26.088 109.893 26.168 109.365 26.168C108.853 26.168 108.437 26.088 108.117 25.928C107.797 25.768 107.557 25.536 107.397 25.232C107.253 24.928 107.181 24.552 107.181 24.104C106.765 24.776 106.269 25.288 105.693 25.64C105.117 25.992 104.445 26.168 103.677 26.168ZM104.829 25.016C105.277 25.016 105.693 24.888 106.077 24.632C106.477 24.376 106.845 23.992 107.181 23.48V18.704C107.005 18.96 106.749 19.184 106.413 19.376C106.077 19.552 105.717 19.736 105.333 19.928C104.949 20.12 104.581 20.344 104.229 20.6C103.893 20.84 103.613 21.152 103.389 21.536C103.165 21.92 103.053 22.408 103.053 23C103.053 23.624 103.213 24.12 103.533 24.488C103.853 24.84 104.285 25.016 104.829 25.016ZM123.138 13.28C123.778 13.28 124.234 13.432 124.506 13.736C124.778 14.04 124.914 14.392 124.914 14.792C124.914 15.224 124.786 15.576 124.53 15.848C124.274 16.12 123.922 16.256 123.474 16.256C123.186 16.256 122.922 16.192 122.682 16.064C122.442 15.936 122.25 15.752 122.106 15.512C121.962 15.272 121.89 14.984 121.89 14.648C121.89 14.552 121.914 14.456 121.962 14.36C122.01 14.248 122.082 14.16 122.178 14.096C121.922 14.16 121.714 14.304 121.554 14.528C121.394 14.736 121.242 15.032 121.098 15.416C120.954 15.784 120.786 16.248 120.594 16.808C120.45 17.24 120.282 17.656 120.09 18.056C119.898 18.44 119.626 18.768 119.274 19.04C118.938 19.296 118.466 19.464 117.858 19.544L118.026 19.376C119.082 19.312 119.978 19.4 120.714 19.64C121.466 19.88 122.05 20.312 122.466 20.936C122.754 21.352 122.986 21.864 123.162 22.472C123.354 23.08 123.562 23.648 123.786 24.176C123.962 24.576 124.154 24.888 124.362 25.112C124.586 25.32 124.93 25.448 125.394 25.496V26C125.138 26.048 124.874 26.088 124.602 26.12C124.33 26.152 124.074 26.168 123.834 26.168C123.05 26.168 122.45 25.992 122.034 25.64C121.634 25.288 121.346 24.776 121.17 24.104C121.09 23.848 120.994 23.528 120.882 23.144C120.786 22.744 120.65 22.344 120.474 21.944C120.314 21.528 120.122 21.176 119.898 20.888C119.578 20.44 119.154 20.144 118.626 20C118.114 19.856 117.45 19.8 116.634 19.832V19.424C117.482 19.376 118.13 19.232 118.578 18.992C119.026 18.752 119.37 18.416 119.61 17.984C119.85 17.552 120.074 17.024 120.282 16.4C120.442 15.888 120.618 15.392 120.81 14.912C121.002 14.432 121.274 14.04 121.626 13.736C121.994 13.432 122.498 13.28 123.138 13.28ZM118.266 13.64V14.144C117.706 14.144 117.306 14.264 117.066 14.504C116.842 14.744 116.73 15.2 116.73 15.872V23.768C116.73 24.44 116.842 24.896 117.066 25.136C117.306 25.376 117.706 25.496 118.266 25.496V26C117.994 25.984 117.586 25.968 117.042 25.952C116.498 25.92 115.946 25.904 115.386 25.904C114.842 25.904 114.282 25.92 113.706 25.952C113.13 25.968 112.698 25.984 112.41 26V25.496C113.034 25.496 113.474 25.376 113.73 25.136C114.002 24.896 114.138 24.44 114.138 23.768V15.872C114.138 15.2 114.002 14.744 113.73 14.504C113.474 14.264 113.034 14.144 112.41 14.144V13.64C112.698 13.656 113.13 13.68 113.706 13.712C114.298 13.728 114.874 13.736 115.434 13.736C115.978 13.736 116.522 13.728 117.066 13.712C117.61 13.68 118.01 13.656 118.266 13.64ZM138.641 13.64C138.577 14.248 138.529 14.824 138.497 15.368C138.481 15.912 138.473 16.328 138.473 16.616C138.473 16.92 138.481 17.208 138.497 17.48C138.513 17.752 138.529 17.976 138.545 18.152H137.993C137.865 17.032 137.657 16.184 137.369 15.608C137.097 15.032 136.745 14.64 136.313 14.432C135.881 14.224 135.369 14.12 134.777 14.12H133.889V23.528C133.889 24.312 134.105 24.84 134.537 25.112C134.985 25.368 135.585 25.496 136.337 25.496V26C135.953 25.984 135.425 25.968 134.753 25.952C134.081 25.92 133.361 25.904 132.593 25.904C131.841 25.904 131.121 25.92 130.433 25.952C129.761 25.968 129.233 25.984 128.849 26V25.496C129.617 25.496 130.217 25.376 130.649 25.136C131.081 24.88 131.297 24.36 131.297 23.576V14.12H130.217C129.625 14.12 129.129 14.224 128.729 14.432C128.329 14.64 128.001 15.04 127.745 15.632C127.505 16.208 127.321 17.056 127.193 18.176H126.641C126.673 18 126.689 17.776 126.689 17.504C126.705 17.232 126.713 16.944 126.713 16.64C126.713 16.352 126.697 15.936 126.665 15.392C126.649 14.832 126.609 14.256 126.545 13.664H128.921C129.433 13.664 130.009 13.672 130.649 13.688C131.289 13.704 131.929 13.712 132.569 13.712C133.209 13.712 133.849 13.704 134.489 13.688C135.145 13.656 135.729 13.64 136.241 13.64H138.641ZM146.02 13.64V14.144C145.396 14.144 144.948 14.264 144.676 14.504C144.42 14.744 144.292 15.2 144.292 15.872V23.936C144.292 24.528 144.364 24.936 144.508 25.16C144.652 25.384 144.916 25.496 145.3 25.496C146.116 25.496 146.74 25.352 147.172 25.064C147.604 24.776 147.9 24.392 148.06 23.912C148.22 23.432 148.3 22.928 148.3 22.4C148.3 21.28 148.004 20.472 147.412 19.976C146.836 19.48 145.868 19.232 144.508 19.232C144.236 19.232 143.956 19.232 143.668 19.232C143.38 19.232 143.108 19.232 142.852 19.232L142.804 18.8C143.364 18.8 143.9 18.8 144.412 18.8C144.94 18.8 145.452 18.8 145.948 18.8C147.756 18.8 149.044 19.128 149.812 19.784C150.596 20.424 150.988 21.24 150.988 22.232C150.988 22.824 150.812 23.408 150.46 23.984C150.124 24.56 149.556 25.04 148.756 25.424C147.972 25.808 146.916 26 145.588 26C145.22 26 144.804 25.984 144.34 25.952C143.892 25.92 143.428 25.904 142.948 25.904C142.436 25.904 141.892 25.92 141.316 25.952C140.74 25.968 140.308 25.984 140.02 26V25.496C140.628 25.496 141.06 25.376 141.316 25.136C141.572 24.896 141.7 24.44 141.7 23.768V15.872C141.7 15.2 141.588 14.744 141.364 14.504C141.14 14.264 140.756 14.144 140.212 14.144V13.64C140.484 13.656 140.876 13.68 141.388 13.712C141.916 13.728 142.452 13.736 142.996 13.736C143.556 13.736 144.124 13.728 144.7 13.712C145.292 13.68 145.732 13.656 146.02 13.64ZM157.348 13.64V14.144C156.788 14.144 156.388 14.264 156.148 14.504C155.924 14.744 155.812 15.2 155.812 15.872V23.768C155.812 24.44 155.94 24.896 156.196 25.136C156.468 25.376 156.916 25.496 157.54 25.496V26C157.252 25.984 156.804 25.968 156.196 25.952C155.604 25.92 155.028 25.904 154.468 25.904C153.956 25.904 153.428 25.92 152.884 25.952C152.34 25.968 151.94 25.984 151.684 26V25.496C152.244 25.496 152.636 25.376 152.86 25.136C153.1 24.896 153.22 24.44 153.22 23.768V15.872C153.22 15.2 153.1 14.744 152.86 14.504C152.636 14.264 152.244 14.144 151.684 14.144V13.64C151.956 13.656 152.364 13.68 152.908 13.712C153.468 13.728 154.004 13.736 154.516 13.736C155.06 13.736 155.596 13.728 156.124 13.712C156.668 13.68 157.076 13.656 157.348 13.64Z" fill="white"/>
</svg>
