<svg width="253" height="33" viewBox="0 0 253 33" fill="none" xmlns="http://www.w3.org/2000/svg">
<path d="M15.9407 2.5H237.401C245.685 2.50012 252.401 9.2158 252.401 17.5C252.401 25.7842 245.685 32.4999 237.401 32.5H15.9407C7.6564 32.5 0.940674 25.7843 0.940674 17.5C0.940674 9.21573 7.6564 2.5 15.9407 2.5Z" fill="#2A2422" stroke="white"/>
<path d="M45.6974 13.28C46.7694 13.28 47.7214 13.504 48.5534 13.952C49.3854 14.4 50.0494 15.104 50.5454 16.064C51.0414 17.024 51.2894 18.28 51.2894 19.832C51.2894 21.384 51.0414 22.64 50.5454 23.6C50.0494 24.544 49.3854 25.24 48.5534 25.688C47.7214 26.12 46.7694 26.336 45.6974 26.336C44.6414 26.336 43.6894 26.12 42.8414 25.688C41.9934 25.24 41.3214 24.544 40.8254 23.6C40.3454 22.64 40.1054 21.384 40.1054 19.832C40.1054 18.28 40.3454 17.024 40.8254 16.064C41.3214 15.104 41.9934 14.4 42.8414 13.952C43.6894 13.504 44.6414 13.28 45.6974 13.28ZM45.6974 13.76C44.8654 13.76 44.1854 14.24 43.6574 15.2C43.1294 16.144 42.8654 17.688 42.8654 19.832C42.8654 21.976 43.1294 23.52 43.6574 24.464C44.1854 25.392 44.8654 25.856 45.6974 25.856C46.5134 25.856 47.1854 25.392 47.7134 24.464C48.2574 23.52 48.5294 21.976 48.5294 19.832C48.5294 17.688 48.2574 16.144 47.7134 15.2C47.1854 14.24 46.5134 13.76 45.6974 13.76ZM64.6985 7.136L65.0585 7.232C64.8985 7.872 64.6985 8.432 64.4585 8.912C64.2345 9.376 63.9625 9.736 63.6425 9.992C63.3545 10.216 63.0025 10.4 62.5865 10.544C62.1705 10.688 61.6585 10.776 61.0505 10.808C60.7945 10.824 60.4345 10.848 59.9705 10.88C59.5225 10.912 59.0585 10.96 58.5785 11.024C57.8745 11.136 57.2745 11.32 56.7785 11.576C56.2985 11.832 55.8985 12.208 55.5785 12.704C55.2745 13.2 55.0185 13.856 54.8105 14.672C54.6185 15.488 54.4585 16.504 54.3305 17.72L55.7465 18.848L54.1385 18.728C54.3305 17.496 54.6905 16.528 55.2185 15.824C55.7465 15.104 56.3865 14.592 57.1385 14.288C57.9065 13.968 58.7225 13.808 59.5865 13.808C60.8185 13.808 61.8185 14.072 62.5865 14.6C63.3705 15.128 63.9465 15.848 64.3145 16.76C64.6985 17.656 64.8905 18.672 64.8905 19.808C64.8905 21.168 64.6425 22.336 64.1465 23.312C63.6665 24.288 62.9865 25.04 62.1065 25.568C61.2425 26.08 60.2265 26.336 59.0585 26.336C58.1945 26.336 57.4345 26.192 56.7785 25.904C56.1225 25.6 55.5705 25.136 55.1225 24.512C54.6745 23.888 54.3305 23.088 54.0905 22.112C53.8665 21.12 53.7545 19.936 53.7545 18.56C53.7545 18.272 53.7625 17.872 53.7785 17.36C53.8105 16.848 53.8585 16.272 53.9225 15.632C54.0025 14.992 54.1145 14.344 54.2585 13.688C54.4185 13.032 54.6265 12.408 54.8825 11.816C55.1385 11.224 55.4585 10.72 55.8425 10.304C56.1785 9.952 56.5865 9.664 57.0665 9.44C57.5625 9.216 58.1305 9.048 58.7705 8.936C59.3305 8.856 59.8825 8.808 60.4265 8.792C60.9865 8.76 61.4345 8.736 61.7705 8.72C62.6505 8.656 63.2905 8.504 63.6905 8.264C64.1065 8.024 64.4425 7.648 64.6985 7.136ZM59.4425 14.312C58.9305 14.312 58.4505 14.488 58.0025 14.84C57.5545 15.176 57.1865 15.752 56.8985 16.568C56.6265 17.384 56.4905 18.512 56.4905 19.952C56.4905 21.36 56.6265 22.504 56.8985 23.384C57.1865 24.248 57.5545 24.88 58.0025 25.28C58.4505 25.664 58.9225 25.856 59.4185 25.856C59.9625 25.856 60.4105 25.672 60.7625 25.304C61.1145 24.92 61.3865 24.432 61.5785 23.84C61.7865 23.232 61.9305 22.568 62.0105 21.848C62.0905 21.128 62.1305 20.424 62.1305 19.736C62.1305 17.768 61.8745 16.376 61.3625 15.56C60.8665 14.728 60.2265 14.312 59.4425 14.312ZM70.7797 13.352V28.064C70.7797 28.768 70.9797 29.24 71.3797 29.48C71.7797 29.72 72.3317 29.84 73.0357 29.84V30.344C72.6677 30.328 72.1557 30.304 71.4997 30.272C70.8437 30.256 70.1397 30.248 69.3877 30.248C68.8597 30.248 68.3397 30.256 67.8277 30.272C67.3157 30.304 66.9237 30.328 66.6517 30.344V29.84C67.2117 29.84 67.6037 29.728 67.8277 29.504C68.0677 29.296 68.1877 28.896 68.1877 28.304V16.232C68.1877 15.512 68.0677 14.984 67.8277 14.648C67.5877 14.296 67.1317 14.12 66.4597 14.12V13.616C66.9717 13.664 67.4677 13.688 67.9477 13.688C68.4757 13.688 68.9797 13.664 69.4597 13.616C69.9397 13.552 70.3797 13.464 70.7797 13.352ZM74.5957 13.28C75.4277 13.28 76.1717 13.512 76.8277 13.976C77.4997 14.424 78.0277 15.088 78.4117 15.968C78.7957 16.848 78.9877 17.944 78.9877 19.256C78.9877 20.216 78.8757 21.128 78.6517 21.992C78.4277 22.84 78.0837 23.592 77.6197 24.248C77.1717 24.888 76.6037 25.4 75.9157 25.784C75.2277 26.152 74.4117 26.336 73.4677 26.336C72.7637 26.336 72.1397 26.184 71.5957 25.88C71.0677 25.576 70.6917 25.192 70.4677 24.728L70.7077 24.392C70.9157 24.792 71.2037 25.12 71.5717 25.376C71.9557 25.632 72.4277 25.76 72.9877 25.76C73.8197 25.76 74.4677 25.496 74.9317 24.968C75.4117 24.424 75.7477 23.696 75.9397 22.784C76.1317 21.856 76.2277 20.808 76.2277 19.64C76.2277 18.328 76.1317 17.272 75.9397 16.472C75.7477 15.656 75.4597 15.064 75.0757 14.696C74.6917 14.312 74.2277 14.12 73.6837 14.12C72.9637 14.12 72.3077 14.408 71.7157 14.984C71.1397 15.56 70.7877 16.424 70.6597 17.576L70.4197 17.072C70.6277 15.872 71.1077 14.944 71.8597 14.288C72.6277 13.616 73.5397 13.28 74.5957 13.28ZM84.0736 26.168C83.4016 26.168 82.8256 26.04 82.3456 25.784C81.8656 25.528 81.5056 25.176 81.2656 24.728C81.0256 24.28 80.9056 23.768 80.9056 23.192C80.9056 22.488 81.0656 21.92 81.3856 21.488C81.7056 21.04 82.1136 20.68 82.6096 20.408C83.1216 20.136 83.6576 19.912 84.2176 19.736C84.7936 19.544 85.3296 19.368 85.8256 19.208C86.3376 19.032 86.7536 18.832 87.0736 18.608C87.4096 18.384 87.5776 18.088 87.5776 17.72V16.088C87.5776 15.512 87.4816 15.056 87.2896 14.72C87.1136 14.368 86.8656 14.12 86.5456 13.976C86.2416 13.832 85.8736 13.76 85.4416 13.76C85.0736 13.76 84.6816 13.816 84.2656 13.928C83.8496 14.024 83.5216 14.224 83.2816 14.528C83.6336 14.624 83.9216 14.816 84.1456 15.104C84.3856 15.376 84.5056 15.72 84.5056 16.136C84.5056 16.584 84.3536 16.936 84.0496 17.192C83.7616 17.448 83.3936 17.576 82.9456 17.576C82.4496 17.576 82.0816 17.424 81.8416 17.12C81.6016 16.8 81.4816 16.432 81.4816 16.016C81.4816 15.584 81.5856 15.232 81.7936 14.96C82.0176 14.688 82.3056 14.432 82.6576 14.192C83.0416 13.936 83.5296 13.72 84.1216 13.544C84.7296 13.368 85.4016 13.28 86.1376 13.28C86.8256 13.28 87.4176 13.36 87.9136 13.52C88.4256 13.664 88.8496 13.904 89.1856 14.24C89.5856 14.608 89.8496 15.072 89.9776 15.632C90.1056 16.176 90.1696 16.84 90.1696 17.624V24.248C90.1696 24.648 90.2176 24.936 90.3136 25.112C90.4256 25.272 90.6016 25.352 90.8416 25.352C91.0016 25.352 91.1536 25.312 91.2976 25.232C91.4576 25.152 91.6416 25.032 91.8496 24.872L92.0896 25.28C91.7536 25.552 91.4096 25.768 91.0576 25.928C90.7216 26.088 90.2896 26.168 89.7616 26.168C89.2496 26.168 88.8336 26.088 88.5136 25.928C88.1936 25.768 87.9536 25.536 87.7936 25.232C87.6496 24.928 87.5776 24.552 87.5776 24.104C87.1616 24.776 86.6656 25.288 86.0896 25.64C85.5136 25.992 84.8416 26.168 84.0736 26.168ZM85.2256 25.016C85.6736 25.016 86.0896 24.888 86.4736 24.632C86.8736 24.376 87.2416 23.992 87.5776 23.48V18.704C87.4016 18.96 87.1456 19.184 86.8096 19.376C86.4736 19.552 86.1136 19.736 85.7296 19.928C85.3456 20.12 84.9776 20.344 84.6256 20.6C84.2896 20.84 84.0096 21.152 83.7856 21.536C83.5616 21.92 83.4496 22.408 83.4496 23C83.4496 23.624 83.6096 24.12 83.9296 24.488C84.2496 24.84 84.6816 25.016 85.2256 25.016ZM104.975 13.64C104.911 14.248 104.863 14.824 104.831 15.368C104.815 15.912 104.807 16.328 104.807 16.616C104.807 16.92 104.815 17.208 104.831 17.48C104.847 17.752 104.863 17.976 104.879 18.152H104.327C104.199 17.032 103.991 16.184 103.703 15.608C103.431 15.032 103.079 14.64 102.647 14.432C102.215 14.224 101.703 14.12 101.111 14.12H100.223V23.528C100.223 24.312 100.439 24.84 100.871 25.112C101.319 25.368 101.919 25.496 102.671 25.496V26C102.287 25.984 101.759 25.968 101.087 25.952C100.415 25.92 99.6948 25.904 98.9268 25.904C98.1748 25.904 97.4548 25.92 96.7668 25.952C96.0948 25.968 95.5668 25.984 95.1828 26V25.496C95.9508 25.496 96.5508 25.376 96.9828 25.136C97.4148 24.88 97.6308 24.36 97.6308 23.576V14.12H96.5508C95.9588 14.12 95.4628 14.224 95.0628 14.432C94.6628 14.64 94.3348 15.04 94.0788 15.632C93.8388 16.208 93.6548 17.056 93.5268 18.176H92.9748C93.0068 18 93.0228 17.776 93.0228 17.504C93.0388 17.232 93.0468 16.944 93.0468 16.64C93.0468 16.352 93.0308 15.936 92.9988 15.392C92.9828 14.832 92.9428 14.256 92.8788 13.664H95.2548C95.7668 13.664 96.3428 13.672 96.9828 13.688C97.6228 13.704 98.2628 13.712 98.9028 13.712C99.5428 13.712 100.183 13.704 100.823 13.688C101.479 13.656 102.063 13.64 102.575 13.64H104.975ZM119.914 13.64V14.144C119.29 14.144 118.842 14.264 118.57 14.504C118.314 14.744 118.186 15.2 118.186 15.872V23.768C118.186 24.44 118.314 24.896 118.57 25.136C118.842 25.376 119.29 25.496 119.914 25.496V26C119.642 25.984 119.218 25.968 118.642 25.952C118.066 25.92 117.498 25.904 116.938 25.904C116.394 25.904 115.85 25.92 115.306 25.952C114.778 25.968 114.378 25.984 114.106 26V25.496C114.65 25.496 115.034 25.376 115.258 25.136C115.482 24.896 115.594 24.44 115.594 23.768V15.872C115.594 15.2 115.482 14.744 115.258 14.504C115.034 14.264 114.65 14.144 114.106 14.144V13.64C114.378 13.656 114.77 13.68 115.282 13.712C115.81 13.728 116.346 13.736 116.89 13.736C117.45 13.736 118.018 13.728 118.594 13.712C119.186 13.68 119.626 13.656 119.914 13.64ZM112.162 13.64V14.144C111.634 14.144 111.25 14.264 111.01 14.504C110.786 14.744 110.674 15.2 110.674 15.872V23.768C110.674 24.44 110.786 24.896 111.01 25.136C111.25 25.376 111.634 25.496 112.162 25.496V26C111.906 25.984 111.514 25.968 110.986 25.952C110.474 25.92 109.938 25.904 109.378 25.904C108.834 25.904 108.266 25.92 107.674 25.952C107.082 25.968 106.642 25.984 106.354 26V25.496C106.978 25.496 107.418 25.376 107.674 25.136C107.946 24.896 108.082 24.44 108.082 23.768V15.872C108.082 15.2 107.946 14.744 107.674 14.504C107.418 14.264 106.978 14.144 106.354 14.144V13.64C106.642 13.656 107.074 13.68 107.65 13.712C108.226 13.728 108.786 13.736 109.33 13.736C109.89 13.736 110.434 13.728 110.962 13.712C111.506 13.68 111.906 13.656 112.162 13.64ZM116.458 19.4V19.88H109.69V19.4H116.458ZM124.621 26.168C123.949 26.168 123.373 26.04 122.893 25.784C122.413 25.528 122.053 25.176 121.813 24.728C121.573 24.28 121.453 23.768 121.453 23.192C121.453 22.488 121.613 21.92 121.933 21.488C122.253 21.04 122.661 20.68 123.157 20.408C123.669 20.136 124.205 19.912 124.765 19.736C125.341 19.544 125.877 19.368 126.373 19.208C126.885 19.032 127.301 18.832 127.621 18.608C127.957 18.384 128.125 18.088 128.125 17.72V16.088C128.125 15.512 128.029 15.056 127.837 14.72C127.661 14.368 127.413 14.12 127.093 13.976C126.789 13.832 126.421 13.76 125.989 13.76C125.621 13.76 125.229 13.816 124.813 13.928C124.397 14.024 124.069 14.224 123.829 14.528C124.181 14.624 124.469 14.816 124.693 15.104C124.933 15.376 125.053 15.72 125.053 16.136C125.053 16.584 124.901 16.936 124.597 17.192C124.309 17.448 123.941 17.576 123.493 17.576C122.997 17.576 122.629 17.424 122.389 17.12C122.149 16.8 122.029 16.432 122.029 16.016C122.029 15.584 122.133 15.232 122.341 14.96C122.565 14.688 122.853 14.432 123.205 14.192C123.589 13.936 124.077 13.72 124.669 13.544C125.277 13.368 125.949 13.28 126.685 13.28C127.373 13.28 127.965 13.36 128.461 13.52C128.973 13.664 129.397 13.904 129.733 14.24C130.133 14.608 130.397 15.072 130.525 15.632C130.653 16.176 130.717 16.84 130.717 17.624V24.248C130.717 24.648 130.765 24.936 130.861 25.112C130.973 25.272 131.149 25.352 131.389 25.352C131.549 25.352 131.701 25.312 131.845 25.232C132.005 25.152 132.189 25.032 132.397 24.872L132.637 25.28C132.301 25.552 131.957 25.768 131.605 25.928C131.269 26.088 130.837 26.168 130.309 26.168C129.797 26.168 129.381 26.088 129.061 25.928C128.741 25.768 128.501 25.536 128.341 25.232C128.197 24.928 128.125 24.552 128.125 24.104C127.709 24.776 127.213 25.288 126.637 25.64C126.061 25.992 125.389 26.168 124.621 26.168ZM125.773 25.016C126.221 25.016 126.637 24.888 127.021 24.632C127.421 24.376 127.789 23.992 128.125 23.48V18.704C127.949 18.96 127.693 19.184 127.357 19.376C127.021 19.552 126.661 19.736 126.277 19.928C125.893 20.12 125.525 20.344 125.173 20.6C124.837 20.84 124.557 21.152 124.333 21.536C124.109 21.92 123.997 22.408 123.997 23C123.997 23.624 124.157 24.12 124.477 24.488C124.797 24.84 125.229 25.016 125.773 25.016ZM145.282 13.64V14.144C144.69 14.144 144.258 14.264 143.986 14.504C143.73 14.744 143.602 15.2 143.602 15.872V23.768C143.602 24.44 143.714 24.896 143.938 25.136C144.178 25.376 144.562 25.496 145.09 25.496V26C144.834 25.984 144.442 25.968 143.914 25.952C143.402 25.92 142.866 25.904 142.306 25.904C141.762 25.904 141.202 25.92 140.626 25.952C140.05 25.968 139.618 25.984 139.33 26V25.496C139.938 25.496 140.37 25.376 140.626 25.136C140.882 24.896 141.01 24.44 141.01 23.768V15.704C141.01 15.128 140.898 14.728 140.674 14.504C140.45 14.264 140.05 14.144 139.474 14.144C138.77 14.144 138.234 14.28 137.866 14.552C137.498 14.808 137.25 15.144 137.122 15.56C136.994 15.976 136.93 16.432 136.93 16.928C136.93 17.968 137.17 18.744 137.65 19.256C138.146 19.768 139.01 20.032 140.242 20.048C140.61 20.064 140.978 20.072 141.346 20.072C141.73 20.072 142.098 20.072 142.45 20.072L142.498 20.528C141.714 20.528 141.026 20.536 140.434 20.552C139.858 20.568 139.394 20.576 139.042 20.576C138.034 20.576 137.218 20.48 136.594 20.288C135.97 20.096 135.49 19.832 135.154 19.496C134.818 19.16 134.586 18.792 134.458 18.392C134.346 17.992 134.29 17.584 134.29 17.168C134.29 16.48 134.434 15.872 134.722 15.344C135.01 14.816 135.506 14.4 136.21 14.096C136.93 13.792 137.906 13.64 139.138 13.64C139.618 13.64 140.122 13.656 140.65 13.688C141.194 13.72 141.762 13.736 142.354 13.736C142.898 13.736 143.45 13.728 144.01 13.712C144.586 13.68 145.01 13.656 145.282 13.64ZM140.338 20.312V20.552C139.922 20.568 139.506 20.608 139.09 20.672C138.69 20.72 138.338 20.888 138.034 21.176C137.794 21.4 137.602 21.696 137.458 22.064C137.33 22.432 137.218 22.832 137.122 23.264C137.026 23.68 136.898 24.104 136.738 24.536C136.53 25.08 136.234 25.472 135.85 25.712C135.466 25.952 134.842 26.072 133.978 26.072C133.77 26.072 133.546 26.064 133.306 26.048C133.066 26.032 132.81 26.016 132.538 26V25.496C132.986 25.448 133.322 25.384 133.546 25.304C133.77 25.208 133.93 25.072 134.026 24.896C134.138 24.704 134.25 24.456 134.362 24.152C134.618 23.496 134.818 22.984 134.962 22.616C135.122 22.232 135.282 21.936 135.442 21.728C135.602 21.504 135.802 21.312 136.042 21.152C136.218 21.024 136.426 20.912 136.666 20.816C136.906 20.704 137.194 20.608 137.53 20.528C137.866 20.448 138.266 20.392 138.73 20.36C139.194 20.312 139.73 20.296 140.338 20.312ZM158.551 13.28C159.095 13.28 159.615 13.352 160.111 13.496C160.607 13.624 161.039 13.808 161.407 14.048C161.791 14.288 162.079 14.576 162.271 14.912C162.479 15.248 162.583 15.616 162.583 16.016C162.583 16.496 162.447 16.872 162.175 17.144C161.903 17.416 161.551 17.552 161.119 17.552C160.687 17.552 160.327 17.432 160.039 17.192C159.751 16.952 159.607 16.608 159.607 16.16C159.607 15.744 159.727 15.408 159.967 15.152C160.207 14.88 160.487 14.704 160.807 14.624C160.663 14.384 160.407 14.184 160.039 14.024C159.687 13.848 159.303 13.76 158.887 13.76C158.455 13.76 158.039 13.872 157.639 14.096C157.255 14.32 156.911 14.664 156.607 15.128C156.303 15.592 156.055 16.192 155.863 16.928C155.687 17.664 155.599 18.552 155.599 19.592C155.599 20.936 155.751 22.008 156.055 22.808C156.375 23.592 156.791 24.152 157.303 24.488C157.815 24.824 158.367 24.992 158.959 24.992C159.343 24.992 159.735 24.92 160.135 24.776C160.551 24.632 160.943 24.392 161.311 24.056C161.695 23.72 162.031 23.264 162.319 22.688L162.775 22.856C162.599 23.384 162.319 23.92 161.935 24.464C161.567 25.008 161.079 25.456 160.471 25.808C159.863 26.16 159.119 26.336 158.239 26.336C157.231 26.336 156.319 26.088 155.503 25.592C154.687 25.096 154.039 24.376 153.559 23.432C153.079 22.472 152.839 21.304 152.839 19.928C152.839 18.584 153.079 17.416 153.559 16.424C154.055 15.416 154.735 14.64 155.599 14.096C156.463 13.552 157.447 13.28 158.551 13.28ZM170.509 13.64C171.709 13.64 172.653 13.76 173.341 14C174.029 14.24 174.517 14.584 174.805 15.032C175.093 15.464 175.237 15.96 175.237 16.52C175.237 17.368 174.789 18.104 173.893 18.728C172.997 19.352 171.629 19.664 169.789 19.664C169.789 19.664 169.749 19.656 169.669 19.64C169.589 19.608 169.501 19.576 169.405 19.544C169.325 19.512 169.285 19.496 169.285 19.496C170.197 19.48 170.893 19.376 171.373 19.184C171.853 18.976 172.173 18.672 172.333 18.272C172.509 17.856 172.597 17.344 172.597 16.736C172.597 16.256 172.533 15.824 172.405 15.44C172.293 15.04 172.053 14.728 171.685 14.504C171.333 14.264 170.805 14.144 170.101 14.144C169.525 14.144 169.117 14.264 168.877 14.504C168.637 14.744 168.517 15.2 168.517 15.872V23.768C168.517 24.456 168.637 24.92 168.877 25.16C169.117 25.384 169.549 25.496 170.173 25.496C171.005 25.496 171.645 25.36 172.093 25.088C172.541 24.816 172.845 24.464 173.005 24.032C173.181 23.584 173.269 23.104 173.269 22.592C173.269 21.584 172.997 20.888 172.453 20.504C171.925 20.12 171.205 19.928 170.293 19.928H166.933C166.933 19.928 166.933 19.856 166.933 19.712C166.933 19.568 166.933 19.496 166.933 19.496H170.317L170.581 19.544C171.893 19.544 172.941 19.664 173.725 19.904C174.509 20.128 175.077 20.464 175.429 20.912C175.781 21.36 175.957 21.912 175.957 22.568C175.957 23.208 175.789 23.792 175.453 24.32C175.117 24.832 174.557 25.24 173.773 25.544C173.005 25.848 171.973 26 170.677 26C170.181 26 169.637 25.984 169.045 25.952C168.453 25.92 167.837 25.904 167.197 25.904C166.669 25.904 166.109 25.92 165.517 25.952C164.925 25.968 164.485 25.984 164.197 26V25.496C164.821 25.496 165.261 25.376 165.517 25.136C165.789 24.896 165.925 24.44 165.925 23.768V15.872C165.925 15.2 165.789 14.744 165.517 14.504C165.261 14.264 164.821 14.144 164.197 14.144V13.64C164.485 13.656 164.917 13.68 165.493 13.712C166.069 13.728 166.621 13.736 167.149 13.736C167.773 13.736 168.373 13.72 168.949 13.688C169.541 13.656 170.061 13.64 170.509 13.64ZM189.438 13.64V14.144C188.846 14.144 188.414 14.264 188.142 14.504C187.886 14.744 187.758 15.2 187.758 15.872V23.768C187.758 24.44 187.87 24.896 188.094 25.136C188.334 25.376 188.718 25.496 189.246 25.496V26C188.99 25.984 188.598 25.968 188.07 25.952C187.558 25.92 187.022 25.904 186.462 25.904C185.918 25.904 185.358 25.92 184.782 25.952C184.206 25.968 183.774 25.984 183.486 26V25.496C184.094 25.496 184.526 25.376 184.782 25.136C185.038 24.896 185.166 24.44 185.166 23.768V15.704C185.166 15.128 185.054 14.728 184.83 14.504C184.606 14.264 184.206 14.144 183.63 14.144C182.926 14.144 182.39 14.28 182.022 14.552C181.654 14.808 181.406 15.144 181.278 15.56C181.15 15.976 181.086 16.432 181.086 16.928C181.086 17.968 181.326 18.744 181.806 19.256C182.302 19.768 183.166 20.032 184.398 20.048C184.766 20.064 185.134 20.072 185.502 20.072C185.886 20.072 186.254 20.072 186.606 20.072L186.654 20.528C185.87 20.528 185.182 20.536 184.59 20.552C184.014 20.568 183.55 20.576 183.198 20.576C182.19 20.576 181.374 20.48 180.75 20.288C180.126 20.096 179.646 19.832 179.31 19.496C178.974 19.16 178.742 18.792 178.614 18.392C178.502 17.992 178.446 17.584 178.446 17.168C178.446 16.48 178.59 15.872 178.878 15.344C179.166 14.816 179.662 14.4 180.366 14.096C181.086 13.792 182.062 13.64 183.294 13.64C183.774 13.64 184.278 13.656 184.806 13.688C185.35 13.72 185.918 13.736 186.51 13.736C187.054 13.736 187.606 13.728 188.166 13.712C188.742 13.68 189.166 13.656 189.438 13.64ZM184.494 20.312V20.552C184.078 20.568 183.662 20.608 183.246 20.672C182.846 20.72 182.494 20.888 182.19 21.176C181.95 21.4 181.758 21.696 181.614 22.064C181.486 22.432 181.374 22.832 181.278 23.264C181.182 23.68 181.054 24.104 180.894 24.536C180.686 25.08 180.39 25.472 180.006 25.712C179.622 25.952 178.998 26.072 178.134 26.072C177.926 26.072 177.702 26.064 177.462 26.048C177.222 26.032 176.966 26.016 176.694 26V25.496C177.142 25.448 177.478 25.384 177.702 25.304C177.926 25.208 178.086 25.072 178.182 24.896C178.294 24.704 178.406 24.456 178.518 24.152C178.774 23.496 178.974 22.984 179.118 22.616C179.278 22.232 179.438 21.936 179.598 21.728C179.758 21.504 179.958 21.312 180.198 21.152C180.374 21.024 180.582 20.912 180.822 20.816C181.062 20.704 181.35 20.608 181.686 20.528C182.022 20.448 182.422 20.392 182.886 20.36C183.35 20.312 183.886 20.296 184.494 20.312ZM196.176 13.28C196.928 13.28 197.584 13.4 198.144 13.64C198.704 13.864 199.136 14.184 199.44 14.6C199.76 15.016 199.92 15.52 199.92 16.112C199.92 16.784 199.712 17.344 199.296 17.792C198.896 18.224 198.392 18.568 197.784 18.824C197.176 19.08 196.56 19.272 195.936 19.4C196.88 19.416 197.704 19.544 198.408 19.784C199.112 20.024 199.656 20.376 200.04 20.84C200.424 21.288 200.616 21.864 200.616 22.568C200.616 23.336 200.376 24.008 199.896 24.584C199.416 25.144 198.76 25.576 197.928 25.88C197.096 26.184 196.176 26.336 195.168 26.336C194.48 26.336 193.872 26.256 193.344 26.096C192.832 25.952 192.384 25.752 192 25.496C191.664 25.272 191.392 25.016 191.184 24.728C190.976 24.44 190.872 24.12 190.872 23.768C190.872 23.352 191 23.008 191.256 22.736C191.528 22.464 191.888 22.328 192.336 22.328C192.752 22.328 193.104 22.456 193.392 22.712C193.696 22.952 193.848 23.304 193.848 23.768C193.848 24.136 193.736 24.44 193.512 24.68C193.304 24.904 193.032 25.056 192.696 25.136C192.824 25.344 193.12 25.528 193.584 25.688C194.064 25.832 194.544 25.904 195.024 25.904C195.984 25.904 196.712 25.616 197.208 25.04C197.72 24.464 197.976 23.712 197.976 22.784C197.976 21.936 197.768 21.208 197.352 20.6C196.952 19.992 196.352 19.664 195.552 19.616C195.392 19.696 195.224 19.768 195.048 19.832C194.888 19.896 194.72 19.928 194.544 19.928C194.192 19.928 194.016 19.792 194.016 19.52C194.016 19.264 194.2 19.136 194.568 19.136C194.728 19.136 194.896 19.152 195.072 19.184C195.248 19.216 195.416 19.248 195.576 19.28C196.28 19.024 196.752 18.64 196.992 18.128C197.232 17.616 197.352 17.04 197.352 16.4C197.352 15.616 197.2 14.992 196.896 14.528C196.592 14.064 196.12 13.832 195.48 13.832C194.888 13.832 194.336 14.008 193.824 14.36C193.328 14.696 192.928 15.168 192.624 15.776C192.32 16.384 192.168 17.088 192.168 17.888H191.616C191.648 17.088 191.656 16.408 191.64 15.848C191.624 15.288 191.6 14.816 191.568 14.432C191.552 14.032 191.528 13.712 191.496 13.472H192.048C192.096 13.824 192.152 14.088 192.216 14.264C192.296 14.44 192.416 14.528 192.576 14.528C192.672 14.528 192.784 14.488 192.912 14.408C193.056 14.328 193.216 14.232 193.392 14.12C193.712 13.912 194.088 13.72 194.52 13.544C194.952 13.368 195.504 13.28 196.176 13.28ZM208.119 13.64V14.144C207.495 14.144 207.047 14.264 206.775 14.504C206.519 14.744 206.391 15.2 206.391 15.872V23.936C206.391 24.528 206.511 24.936 206.751 25.16C206.991 25.384 207.399 25.496 207.975 25.496C208.791 25.496 209.415 25.352 209.847 25.064C210.279 24.776 210.575 24.392 210.735 23.912C210.895 23.432 210.975 22.928 210.975 22.4C210.975 21.28 210.679 20.472 210.087 19.976C209.511 19.48 208.543 19.232 207.183 19.232C206.815 19.232 206.439 19.232 206.055 19.232C205.671 19.232 205.303 19.232 204.951 19.232L204.903 18.8C205.575 18.8 206.215 18.8 206.823 18.8C207.447 18.8 208.047 18.8 208.623 18.8C210.431 18.8 211.719 19.128 212.487 19.784C213.271 20.424 213.663 21.24 213.663 22.232C213.663 22.824 213.487 23.408 213.135 23.984C212.799 24.56 212.231 25.04 211.431 25.424C210.647 25.808 209.591 26 208.263 26C207.799 26 207.295 25.984 206.751 25.952C206.223 25.92 205.655 25.904 205.047 25.904C204.535 25.904 203.991 25.92 203.415 25.952C202.839 25.968 202.407 25.984 202.119 26V25.496C202.727 25.496 203.159 25.376 203.415 25.136C203.671 24.896 203.799 24.44 203.799 23.768V15.872C203.799 15.2 203.687 14.744 203.463 14.504C203.239 14.264 202.855 14.144 202.311 14.144V13.64C202.583 13.656 202.975 13.68 203.487 13.712C204.015 13.728 204.551 13.736 205.095 13.736C205.655 13.736 206.223 13.728 206.799 13.712C207.391 13.68 207.831 13.656 208.119 13.64Z" fill="white"/>
</svg>
