<svg width="117" height="33" viewBox="0 0 117 33" fill="none" xmlns="http://www.w3.org/2000/svg">
<path d="M15.5557 2.5H100.805C109.089 2.50006 115.805 9.21576 115.805 17.5C115.805 25.7842 109.089 32.4999 100.805 32.5H15.5557C7.27139 32.5 0.555664 25.7843 0.555664 17.5C0.555664 9.21573 7.27139 2.5 15.5557 2.5Z" fill="#2A2422" stroke="white"/>
<path d="M45.6576 13.64V14.144C45.0336 14.144 44.5856 14.264 44.3136 14.504C44.0576 14.744 43.9296 15.2 43.9296 15.872V23.768C43.9296 24.44 44.0576 24.896 44.3136 25.136C44.5856 25.376 45.0336 25.496 45.6576 25.496V26C45.3856 25.984 44.9616 25.968 44.3856 25.952C43.8096 25.92 43.2416 25.904 42.6816 25.904C42.1376 25.904 41.5936 25.92 41.0496 25.952C40.5216 25.968 40.1216 25.984 39.8496 26V25.496C40.3936 25.496 40.7776 25.376 41.0016 25.136C41.2256 24.896 41.3376 24.44 41.3376 23.768V15.872C41.3376 15.2 41.2256 14.744 41.0016 14.504C40.7776 14.264 40.3936 14.144 39.8496 14.144H37.9056C37.3776 14.144 36.9936 14.264 36.7536 14.504C36.5296 14.744 36.4176 15.2 36.4176 15.872V23.768C36.4176 24.44 36.5296 24.896 36.7536 25.136C36.9936 25.376 37.3776 25.496 37.9056 25.496V26C37.6496 25.984 37.2576 25.968 36.7296 25.952C36.2176 25.92 35.6816 25.904 35.1216 25.904C34.5776 25.904 34.0096 25.92 33.4176 25.952C32.8256 25.968 32.3856 25.984 32.0976 26V25.496C32.7216 25.496 33.1616 25.376 33.4176 25.136C33.6896 24.896 33.8256 24.44 33.8256 23.768V15.872C33.8256 15.2 33.6896 14.744 33.4176 14.504C33.1616 14.264 32.7216 14.144 32.0976 14.144V13.64C32.3856 13.656 32.8176 13.68 33.3936 13.712C33.9696 13.728 34.5296 13.736 35.0736 13.736C35.7936 13.736 36.4496 13.72 37.0416 13.688C37.6496 13.656 38.2896 13.64 38.9616 13.64C39.6496 13.64 40.2496 13.656 40.7616 13.688C41.2896 13.72 41.9136 13.736 42.6336 13.736C43.1936 13.736 43.7616 13.728 44.3376 13.712C44.9296 13.68 45.3696 13.656 45.6576 13.64ZM58.3325 13.616V14.096C58.0285 14.144 57.7485 14.304 57.4925 14.576C57.2365 14.832 56.9885 15.28 56.7485 15.92L53.0045 25.952L52.4285 26.528L47.7485 15.464C47.4445 14.84 47.1485 14.464 46.8605 14.336C46.5885 14.192 46.3565 14.12 46.1645 14.12V13.616C46.5645 13.664 46.9885 13.704 47.4365 13.736C47.8845 13.752 48.3485 13.76 48.8285 13.76C49.3725 13.76 49.9165 13.744 50.4605 13.712C51.0205 13.68 51.5405 13.648 52.0205 13.616V14.12C51.6365 14.12 51.2925 14.152 50.9885 14.216C50.7005 14.264 50.5085 14.416 50.4125 14.672C50.3325 14.912 50.4125 15.328 50.6525 15.92L53.6285 23.24L53.4605 23.312L55.8845 16.88C56.1245 16.24 56.2205 15.728 56.1725 15.344C56.1245 14.944 55.9565 14.648 55.6685 14.456C55.3805 14.248 54.9565 14.128 54.3965 14.096V13.616C54.6685 13.632 54.9165 13.648 55.1405 13.664C55.3805 13.664 55.6125 13.672 55.8365 13.688C56.0605 13.688 56.2845 13.688 56.5085 13.688C56.8605 13.688 57.1885 13.68 57.4925 13.664C57.8125 13.648 58.0925 13.632 58.3325 13.616ZM53.0045 25.952L52.1405 28.208C51.9805 28.608 51.8125 28.944 51.6365 29.216C51.4765 29.488 51.3005 29.712 51.1085 29.888C50.8685 30.112 50.5725 30.272 50.2205 30.368C49.8685 30.464 49.5165 30.512 49.1645 30.512C48.8285 30.512 48.5085 30.448 48.2045 30.32C47.9165 30.208 47.6765 30.032 47.4845 29.792C47.2925 29.552 47.1965 29.256 47.1965 28.904C47.1965 28.488 47.3325 28.152 47.6045 27.896C47.8765 27.64 48.2365 27.512 48.6845 27.512C49.0845 27.512 49.4205 27.616 49.6925 27.824C49.9645 28.048 50.1005 28.368 50.1005 28.784C50.1005 29.072 50.0205 29.32 49.8605 29.528C49.7165 29.736 49.5245 29.896 49.2845 30.008C49.3325 30.024 49.3805 30.032 49.4285 30.032C49.4765 30.032 49.5165 30.032 49.5485 30.032C49.9965 30.032 50.3965 29.88 50.7485 29.576C51.1005 29.288 51.3965 28.816 51.6365 28.16L52.5005 25.856L53.0045 25.952ZM71.3594 13.64C71.2954 14.248 71.2474 14.824 71.2154 15.368C71.1994 15.912 71.1914 16.328 71.1914 16.616C71.1914 16.92 71.1994 17.208 71.2154 17.48C71.2314 17.752 71.2474 17.976 71.2634 18.152H70.7114C70.5834 17.032 70.3754 16.184 70.0874 15.608C69.8154 15.032 69.4634 14.64 69.0314 14.432C68.5994 14.224 68.0874 14.12 67.4954 14.12H66.6074V23.528C66.6074 24.312 66.8234 24.84 67.2554 25.112C67.7034 25.368 68.3034 25.496 69.0554 25.496V26C68.6714 25.984 68.1434 25.968 67.4714 25.952C66.7994 25.92 66.0794 25.904 65.3114 25.904C64.5594 25.904 63.8394 25.92 63.1514 25.952C62.4794 25.968 61.9514 25.984 61.5674 26V25.496C62.3354 25.496 62.9354 25.376 63.3674 25.136C63.7994 24.88 64.0154 24.36 64.0154 23.576V14.12H62.9354C62.3434 14.12 61.8474 14.224 61.4474 14.432C61.0474 14.64 60.7194 15.04 60.4634 15.632C60.2234 16.208 60.0394 17.056 59.9114 18.176H59.3594C59.3914 18 59.4074 17.776 59.4074 17.504C59.4234 17.232 59.4314 16.944 59.4314 16.64C59.4314 16.352 59.4154 15.936 59.3834 15.392C59.3674 14.832 59.3274 14.256 59.2634 13.664H61.6394C62.1514 13.664 62.7274 13.672 63.3674 13.688C64.0074 13.704 64.6474 13.712 65.2874 13.712C65.9274 13.712 66.5674 13.704 67.2074 13.688C67.8634 13.656 68.4474 13.64 68.9594 13.64H71.3594ZM78.7383 13.64V14.144C78.1143 14.144 77.6663 14.264 77.3943 14.504C77.1383 14.744 77.0103 15.2 77.0103 15.872V23.936C77.0103 24.528 77.1303 24.936 77.3703 25.16C77.6103 25.384 78.0183 25.496 78.5943 25.496C79.4103 25.496 80.0343 25.352 80.4663 25.064C80.8983 24.776 81.1943 24.392 81.3543 23.912C81.5143 23.432 81.5943 22.928 81.5943 22.4C81.5943 21.28 81.2983 20.472 80.7063 19.976C80.1303 19.48 79.1623 19.232 77.8023 19.232C77.4343 19.232 77.0583 19.232 76.6743 19.232C76.2903 19.232 75.9223 19.232 75.5703 19.232L75.5223 18.8C76.1943 18.8 76.8343 18.8 77.4423 18.8C78.0663 18.8 78.6663 18.8 79.2423 18.8C81.0503 18.8 82.3383 19.128 83.1063 19.784C83.8903 20.424 84.2823 21.24 84.2823 22.232C84.2823 22.824 84.1063 23.408 83.7543 23.984C83.4183 24.56 82.8503 25.04 82.0503 25.424C81.2663 25.808 80.2103 26 78.8823 26C78.4183 26 77.9143 25.984 77.3703 25.952C76.8423 25.92 76.2743 25.904 75.6663 25.904C75.1543 25.904 74.6103 25.92 74.0343 25.952C73.4583 25.968 73.0263 25.984 72.7383 26V25.496C73.3463 25.496 73.7783 25.376 74.0343 25.136C74.2903 24.896 74.4183 24.44 74.4183 23.768V15.872C74.4183 15.2 74.3063 14.744 74.0823 14.504C73.8583 14.264 73.4743 14.144 72.9303 14.144V13.64C73.2023 13.656 73.5943 13.68 74.1063 13.712C74.6343 13.728 75.1703 13.736 75.7143 13.736C76.2743 13.736 76.8423 13.728 77.4183 13.712C78.0103 13.68 78.4503 13.656 78.7383 13.64Z" fill="white"/>
</svg>
